<mxfile host="app.diagrams.net" agent="Mozilla/5.0 (Windows NT 10.0; Win64; x64) AppleWebKit/537.36 (KHTML, like Gecko) Chrome/129.0.0.0 Safari/537.36 Edg/129.0.0.0" version="24.7.17" pages="2">
  <diagram id="C5RBs43oDa-KdzZeNtuy" name="Navegação">
    <mxGraphModel dx="1587" dy="450" grid="1" gridSize="10" guides="1" tooltips="1" connect="1" arrows="1" fold="1" page="1" pageScale="1" pageWidth="827" pageHeight="1169" math="0" shadow="0">
      <root>
        <mxCell id="WIyWlLk6GJQsqaUBKTNV-0" />
        <mxCell id="WIyWlLk6GJQsqaUBKTNV-1" parent="WIyWlLk6GJQsqaUBKTNV-0" />
        <mxCell id="peWNFnE6vbzwBscHt10J-1" style="edgeStyle=orthogonalEdgeStyle;rounded=0;orthogonalLoop=1;jettySize=auto;html=1;entryX=0.5;entryY=0;entryDx=0;entryDy=0;" edge="1" parent="WIyWlLk6GJQsqaUBKTNV-1" source="peWNFnE6vbzwBscHt10J-0" target="peWNFnE6vbzwBscHt10J-2">
          <mxGeometry relative="1" as="geometry">
            <mxPoint x="414" y="220" as="targetPoint" />
            <Array as="points">
              <mxPoint x="414" y="180" />
              <mxPoint x="-30" y="180" />
            </Array>
          </mxGeometry>
        </mxCell>
        <mxCell id="peWNFnE6vbzwBscHt10J-11" style="edgeStyle=orthogonalEdgeStyle;rounded=0;orthogonalLoop=1;jettySize=auto;html=1;exitX=0.5;exitY=1;exitDx=0;exitDy=0;entryX=0.5;entryY=0;entryDx=0;entryDy=0;" edge="1" parent="WIyWlLk6GJQsqaUBKTNV-1" source="peWNFnE6vbzwBscHt10J-0" target="peWNFnE6vbzwBscHt10J-10">
          <mxGeometry relative="1" as="geometry">
            <Array as="points">
              <mxPoint x="414" y="180" />
              <mxPoint x="210" y="180" />
            </Array>
          </mxGeometry>
        </mxCell>
        <mxCell id="peWNFnE6vbzwBscHt10J-14" style="edgeStyle=orthogonalEdgeStyle;rounded=0;orthogonalLoop=1;jettySize=auto;html=1;entryX=0.5;entryY=0;entryDx=0;entryDy=0;" edge="1" parent="WIyWlLk6GJQsqaUBKTNV-1" source="peWNFnE6vbzwBscHt10J-0" target="peWNFnE6vbzwBscHt10J-12">
          <mxGeometry relative="1" as="geometry">
            <Array as="points">
              <mxPoint x="414" y="180" />
              <mxPoint x="470" y="180" />
            </Array>
          </mxGeometry>
        </mxCell>
        <mxCell id="peWNFnE6vbzwBscHt10J-22" style="edgeStyle=orthogonalEdgeStyle;rounded=0;orthogonalLoop=1;jettySize=auto;html=1;entryX=0.5;entryY=0;entryDx=0;entryDy=0;" edge="1" parent="WIyWlLk6GJQsqaUBKTNV-1" source="peWNFnE6vbzwBscHt10J-0" target="peWNFnE6vbzwBscHt10J-21">
          <mxGeometry relative="1" as="geometry">
            <Array as="points">
              <mxPoint x="414" y="180" />
              <mxPoint x="824" y="180" />
            </Array>
          </mxGeometry>
        </mxCell>
        <mxCell id="peWNFnE6vbzwBscHt10J-0" value="Home" style="rounded=0;whiteSpace=wrap;html=1;" vertex="1" parent="WIyWlLk6GJQsqaUBKTNV-1">
          <mxGeometry x="354" y="70" width="120" height="60" as="geometry" />
        </mxCell>
        <mxCell id="peWNFnE6vbzwBscHt10J-4" style="edgeStyle=orthogonalEdgeStyle;rounded=0;orthogonalLoop=1;jettySize=auto;html=1;entryX=0.5;entryY=0;entryDx=0;entryDy=0;" edge="1" parent="WIyWlLk6GJQsqaUBKTNV-1" source="peWNFnE6vbzwBscHt10J-2" target="peWNFnE6vbzwBscHt10J-3">
          <mxGeometry relative="1" as="geometry" />
        </mxCell>
        <mxCell id="peWNFnE6vbzwBscHt10J-2" value="Question and answers" style="rounded=0;whiteSpace=wrap;html=1;" vertex="1" parent="WIyWlLk6GJQsqaUBKTNV-1">
          <mxGeometry x="-90" y="220" width="120" height="60" as="geometry" />
        </mxCell>
        <mxCell id="peWNFnE6vbzwBscHt10J-5" style="edgeStyle=orthogonalEdgeStyle;rounded=0;orthogonalLoop=1;jettySize=auto;html=1;entryX=0.5;entryY=0;entryDx=0;entryDy=0;" edge="1" parent="WIyWlLk6GJQsqaUBKTNV-1" source="peWNFnE6vbzwBscHt10J-3" target="peWNFnE6vbzwBscHt10J-7">
          <mxGeometry relative="1" as="geometry">
            <mxPoint x="-190" y="420" as="targetPoint" />
            <Array as="points">
              <mxPoint x="-130" y="360" />
            </Array>
          </mxGeometry>
        </mxCell>
        <mxCell id="peWNFnE6vbzwBscHt10J-6" style="edgeStyle=orthogonalEdgeStyle;rounded=0;orthogonalLoop=1;jettySize=auto;html=1;exitX=1;exitY=0.5;exitDx=0;exitDy=0;entryX=0.5;entryY=0;entryDx=0;entryDy=0;" edge="1" parent="WIyWlLk6GJQsqaUBKTNV-1" source="peWNFnE6vbzwBscHt10J-3" target="peWNFnE6vbzwBscHt10J-9">
          <mxGeometry relative="1" as="geometry">
            <mxPoint x="120" y="420" as="targetPoint" />
            <mxPoint x="20" y="360" as="sourcePoint" />
          </mxGeometry>
        </mxCell>
        <mxCell id="peWNFnE6vbzwBscHt10J-3" value="" style="rhombus;whiteSpace=wrap;html=1;" vertex="1" parent="WIyWlLk6GJQsqaUBKTNV-1">
          <mxGeometry x="-70" y="320" width="80" height="80" as="geometry" />
        </mxCell>
        <mxCell id="peWNFnE6vbzwBscHt10J-7" value="View question" style="rounded=0;whiteSpace=wrap;html=1;" vertex="1" parent="WIyWlLk6GJQsqaUBKTNV-1">
          <mxGeometry x="-190" y="450" width="120" height="60" as="geometry" />
        </mxCell>
        <mxCell id="peWNFnE6vbzwBscHt10J-9" value="Create question" style="rounded=0;whiteSpace=wrap;html=1;" vertex="1" parent="WIyWlLk6GJQsqaUBKTNV-1">
          <mxGeometry x="10" y="450" width="120" height="60" as="geometry" />
        </mxCell>
        <mxCell id="peWNFnE6vbzwBscHt10J-10" value="Profile" style="rounded=0;whiteSpace=wrap;html=1;" vertex="1" parent="WIyWlLk6GJQsqaUBKTNV-1">
          <mxGeometry x="150" y="220" width="120" height="60" as="geometry" />
        </mxCell>
        <mxCell id="peWNFnE6vbzwBscHt10J-18" style="edgeStyle=orthogonalEdgeStyle;rounded=0;orthogonalLoop=1;jettySize=auto;html=1;entryX=0.5;entryY=0;entryDx=0;entryDy=0;" edge="1" parent="WIyWlLk6GJQsqaUBKTNV-1" source="peWNFnE6vbzwBscHt10J-12" target="peWNFnE6vbzwBscHt10J-16">
          <mxGeometry relative="1" as="geometry" />
        </mxCell>
        <mxCell id="peWNFnE6vbzwBscHt10J-12" value="DarfCode" style="rounded=0;whiteSpace=wrap;html=1;" vertex="1" parent="WIyWlLk6GJQsqaUBKTNV-1">
          <mxGeometry x="410" y="220" width="120" height="60" as="geometry" />
        </mxCell>
        <mxCell id="peWNFnE6vbzwBscHt10J-15" value="View challenge" style="rounded=0;whiteSpace=wrap;html=1;" vertex="1" parent="WIyWlLk6GJQsqaUBKTNV-1">
          <mxGeometry x="325" y="450" width="120" height="60" as="geometry" />
        </mxCell>
        <mxCell id="peWNFnE6vbzwBscHt10J-19" style="edgeStyle=orthogonalEdgeStyle;rounded=0;orthogonalLoop=1;jettySize=auto;html=1;entryX=0.5;entryY=0;entryDx=0;entryDy=0;" edge="1" parent="WIyWlLk6GJQsqaUBKTNV-1" source="peWNFnE6vbzwBscHt10J-16" target="peWNFnE6vbzwBscHt10J-15">
          <mxGeometry relative="1" as="geometry">
            <Array as="points">
              <mxPoint x="385" y="360" />
            </Array>
          </mxGeometry>
        </mxCell>
        <mxCell id="peWNFnE6vbzwBscHt10J-20" style="edgeStyle=orthogonalEdgeStyle;rounded=0;orthogonalLoop=1;jettySize=auto;html=1;entryX=0.5;entryY=0;entryDx=0;entryDy=0;" edge="1" parent="WIyWlLk6GJQsqaUBKTNV-1" source="peWNFnE6vbzwBscHt10J-16" target="peWNFnE6vbzwBscHt10J-17">
          <mxGeometry relative="1" as="geometry">
            <Array as="points">
              <mxPoint x="555" y="360" />
            </Array>
          </mxGeometry>
        </mxCell>
        <mxCell id="peWNFnE6vbzwBscHt10J-16" value="" style="rhombus;whiteSpace=wrap;html=1;" vertex="1" parent="WIyWlLk6GJQsqaUBKTNV-1">
          <mxGeometry x="429" y="320" width="80" height="80" as="geometry" />
        </mxCell>
        <mxCell id="peWNFnE6vbzwBscHt10J-17" value="Create challenge" style="rounded=0;whiteSpace=wrap;html=1;" vertex="1" parent="WIyWlLk6GJQsqaUBKTNV-1">
          <mxGeometry x="495" y="450" width="120" height="60" as="geometry" />
        </mxCell>
        <mxCell id="peWNFnE6vbzwBscHt10J-28" style="edgeStyle=orthogonalEdgeStyle;rounded=0;orthogonalLoop=1;jettySize=auto;html=1;entryX=0.5;entryY=0;entryDx=0;entryDy=0;" edge="1" parent="WIyWlLk6GJQsqaUBKTNV-1" source="peWNFnE6vbzwBscHt10J-21" target="peWNFnE6vbzwBscHt10J-26">
          <mxGeometry relative="1" as="geometry" />
        </mxCell>
        <mxCell id="peWNFnE6vbzwBscHt10J-21" value="Community projects" style="rounded=0;whiteSpace=wrap;html=1;" vertex="1" parent="WIyWlLk6GJQsqaUBKTNV-1">
          <mxGeometry x="764" y="220" width="120" height="60" as="geometry" />
        </mxCell>
        <mxCell id="peWNFnE6vbzwBscHt10J-23" value="View project" style="rounded=0;whiteSpace=wrap;html=1;" vertex="1" parent="WIyWlLk6GJQsqaUBKTNV-1">
          <mxGeometry x="680" y="450" width="120" height="60" as="geometry" />
        </mxCell>
        <mxCell id="peWNFnE6vbzwBscHt10J-24" style="edgeStyle=orthogonalEdgeStyle;rounded=0;orthogonalLoop=1;jettySize=auto;html=1;entryX=0.5;entryY=0;entryDx=0;entryDy=0;" edge="1" source="peWNFnE6vbzwBscHt10J-26" target="peWNFnE6vbzwBscHt10J-23" parent="WIyWlLk6GJQsqaUBKTNV-1">
          <mxGeometry relative="1" as="geometry">
            <Array as="points">
              <mxPoint x="740" y="360" />
            </Array>
          </mxGeometry>
        </mxCell>
        <mxCell id="peWNFnE6vbzwBscHt10J-25" style="edgeStyle=orthogonalEdgeStyle;rounded=0;orthogonalLoop=1;jettySize=auto;html=1;entryX=0.5;entryY=0;entryDx=0;entryDy=0;" edge="1" source="peWNFnE6vbzwBscHt10J-26" target="peWNFnE6vbzwBscHt10J-27" parent="WIyWlLk6GJQsqaUBKTNV-1">
          <mxGeometry relative="1" as="geometry">
            <Array as="points">
              <mxPoint x="910" y="360" />
            </Array>
          </mxGeometry>
        </mxCell>
        <mxCell id="peWNFnE6vbzwBscHt10J-26" value="" style="rhombus;whiteSpace=wrap;html=1;" vertex="1" parent="WIyWlLk6GJQsqaUBKTNV-1">
          <mxGeometry x="784" y="320" width="80" height="80" as="geometry" />
        </mxCell>
        <mxCell id="peWNFnE6vbzwBscHt10J-27" value="participate in the project" style="rounded=0;whiteSpace=wrap;html=1;" vertex="1" parent="WIyWlLk6GJQsqaUBKTNV-1">
          <mxGeometry x="850" y="450" width="120" height="60" as="geometry" />
        </mxCell>
      </root>
    </mxGraphModel>
  </diagram>
  <diagram id="JlcmqkpYdvfIM-D7zW9A" name="Página-2">
    <mxGraphModel dx="874" dy="518" grid="1" gridSize="10" guides="1" tooltips="1" connect="1" arrows="1" fold="1" page="1" pageScale="1" pageWidth="827" pageHeight="1169" math="0" shadow="0">
      <root>
        <mxCell id="0" />
        <mxCell id="1" parent="0" />
        <mxCell id="qSE7-rVhWsWur8lptZWg-2" value="question and answsord" style="rounded=0;whiteSpace=wrap;html=1;" vertex="1" parent="1">
          <mxGeometry x="350" y="140" width="120" height="60" as="geometry" />
        </mxCell>
      </root>
    </mxGraphModel>
  </diagram>
</mxfile>
